<mxfile host="65bd71144e">
    <diagram id="u7dilaMS9UyKAj3PM_xP" name="Page-1">
        <mxGraphModel dx="817" dy="419" grid="1" gridSize="10" guides="1" tooltips="1" connect="1" arrows="1" fold="1" page="1" pageScale="1" pageWidth="827" pageHeight="1169" math="0" shadow="0">
            <root>
                <mxCell id="0"/>
                <mxCell id="1" parent="0"/>
                <mxCell id="2" value="&lt;font style=&quot;font-size: 18px;&quot;&gt;web前端&lt;/font&gt;" style="rounded=1;whiteSpace=wrap;html=1;shadow=1;fillColor=#66B2FF;" vertex="1" parent="1">
                    <mxGeometry x="110" y="80" width="110" height="50" as="geometry"/>
                </mxCell>
                <mxCell id="3" value="&lt;font style=&quot;font-size: 18px;&quot;&gt;服务端&lt;/font&gt;" style="rounded=1;whiteSpace=wrap;html=1;fillColor=#2F9299;" vertex="1" parent="1">
                    <mxGeometry x="280" y="80" width="110" height="50" as="geometry"/>
                </mxCell>
                <mxCell id="4" value="&lt;font style=&quot;font-size: 18px;&quot;&gt;数据库&lt;/font&gt;" style="rounded=1;whiteSpace=wrap;html=1;fillColor=#666600;" vertex="1" parent="1">
                    <mxGeometry x="1010" y="80" width="110" height="50" as="geometry"/>
                </mxCell>
                <mxCell id="5" value="" style="endArrow=classic;startArrow=classic;html=1;entryX=0;entryY=0.5;entryDx=0;entryDy=0;exitX=1;exitY=0.5;exitDx=0;exitDy=0;" edge="1" parent="1" source="2" target="3">
                    <mxGeometry width="50" height="50" relative="1" as="geometry">
                        <mxPoint x="220" y="110" as="sourcePoint"/>
                        <mxPoint x="270" y="60" as="targetPoint"/>
                    </mxGeometry>
                </mxCell>
                <mxCell id="6" value="" style="endArrow=classic;startArrow=classic;html=1;exitX=1;exitY=0.5;exitDx=0;exitDy=0;entryX=0;entryY=0.5;entryDx=0;entryDy=0;" edge="1" parent="1" source="3" target="4">
                    <mxGeometry width="50" height="50" relative="1" as="geometry">
                        <mxPoint x="530" y="100" as="sourcePoint"/>
                        <mxPoint x="580" y="50" as="targetPoint"/>
                    </mxGeometry>
                </mxCell>
                <mxCell id="9" value="" style="endArrow=none;html=1;entryX=0.436;entryY=1.02;entryDx=0;entryDy=0;entryPerimeter=0;fillColor=#990000;strokeColor=#1808FF;" edge="1" parent="1" target="3">
                    <mxGeometry width="50" height="50" relative="1" as="geometry">
                        <mxPoint x="328" y="200" as="sourcePoint"/>
                        <mxPoint x="410" y="200" as="targetPoint"/>
                    </mxGeometry>
                </mxCell>
                <mxCell id="11" value="" style="endArrow=none;html=1;strokeColor=#1808FF;fillColor=#990000;" edge="1" parent="1">
                    <mxGeometry width="50" height="50" relative="1" as="geometry">
                        <mxPoint x="200" y="200" as="sourcePoint"/>
                        <mxPoint x="450" y="200" as="targetPoint"/>
                    </mxGeometry>
                </mxCell>
                <mxCell id="13" value="" style="endArrow=classic;html=1;strokeColor=#1808FF;fillColor=#990000;" edge="1" parent="1">
                    <mxGeometry width="50" height="50" relative="1" as="geometry">
                        <mxPoint x="200" y="200" as="sourcePoint"/>
                        <mxPoint x="200" y="280" as="targetPoint"/>
                    </mxGeometry>
                </mxCell>
                <mxCell id="17" style="edgeStyle=none;html=1;exitX=0.5;exitY=1;exitDx=0;exitDy=0;strokeColor=#1808FF;fontFamily=Comic Sans MS;fontSize=18;entryX=0.5;entryY=0;entryDx=0;entryDy=0;" edge="1" parent="1" source="14" target="18">
                    <mxGeometry relative="1" as="geometry">
                        <mxPoint x="80" y="400" as="targetPoint"/>
                    </mxGeometry>
                </mxCell>
                <mxCell id="20" style="edgeStyle=none;html=1;exitX=0.5;exitY=1;exitDx=0;exitDy=0;entryX=0.5;entryY=0;entryDx=0;entryDy=0;strokeColor=#1808FF;fontFamily=Comic Sans MS;fontSize=12;" edge="1" parent="1" source="14" target="19">
                    <mxGeometry relative="1" as="geometry"/>
                </mxCell>
                <mxCell id="22" style="edgeStyle=none;html=1;exitX=0.5;exitY=1;exitDx=0;exitDy=0;entryX=0.5;entryY=0;entryDx=0;entryDy=0;strokeColor=#1808FF;fontFamily=Comic Sans MS;fontSize=12;" edge="1" parent="1" source="14" target="21">
                    <mxGeometry relative="1" as="geometry"/>
                </mxCell>
                <mxCell id="24" style="edgeStyle=none;html=1;exitX=0.5;exitY=1;exitDx=0;exitDy=0;entryX=0.5;entryY=0;entryDx=0;entryDy=0;strokeColor=#1808FF;fontFamily=Comic Sans MS;fontSize=12;" edge="1" parent="1" source="14" target="23">
                    <mxGeometry relative="1" as="geometry"/>
                </mxCell>
                <mxCell id="14" value="&lt;font style=&quot;font-size: 14px;&quot;&gt;学生操作&lt;/font&gt;" style="ellipse;whiteSpace=wrap;html=1;shadow=1;fillColor=#00CC66;" vertex="1" parent="1">
                    <mxGeometry x="150" y="280" width="100" height="40" as="geometry"/>
                </mxCell>
                <mxCell id="15" value="" style="endArrow=classic;html=1;strokeColor=#1808FF;fillColor=#990000;" edge="1" parent="1">
                    <mxGeometry width="50" height="50" relative="1" as="geometry">
                        <mxPoint x="449.5" y="200" as="sourcePoint"/>
                        <mxPoint x="449.5" y="280" as="targetPoint"/>
                    </mxGeometry>
                </mxCell>
                <mxCell id="26" style="edgeStyle=none;html=1;exitX=0.5;exitY=1;exitDx=0;exitDy=0;entryX=0.5;entryY=0;entryDx=0;entryDy=0;strokeColor=#1808FF;fontFamily=Comic Sans MS;fontSize=12;" edge="1" parent="1" source="16" target="25">
                    <mxGeometry relative="1" as="geometry"/>
                </mxCell>
                <mxCell id="28" style="edgeStyle=none;html=1;exitX=0.5;exitY=1;exitDx=0;exitDy=0;entryX=0.5;entryY=0;entryDx=0;entryDy=0;strokeColor=#1808FF;fontFamily=Comic Sans MS;fontSize=12;" edge="1" parent="1" source="16" target="27">
                    <mxGeometry relative="1" as="geometry"/>
                </mxCell>
                <mxCell id="34" style="edgeStyle=none;html=1;exitX=0.5;exitY=1;exitDx=0;exitDy=0;entryX=0.5;entryY=0;entryDx=0;entryDy=0;strokeColor=#1808FF;fontFamily=Comic Sans MS;fontSize=12;" edge="1" parent="1" source="16" target="29">
                    <mxGeometry relative="1" as="geometry"/>
                </mxCell>
                <mxCell id="35" style="edgeStyle=none;html=1;exitX=0.5;exitY=1;exitDx=0;exitDy=0;entryX=0.5;entryY=0;entryDx=0;entryDy=0;strokeColor=#1808FF;fontFamily=Comic Sans MS;fontSize=12;" edge="1" parent="1" source="16" target="32">
                    <mxGeometry relative="1" as="geometry"/>
                </mxCell>
                <mxCell id="36" style="edgeStyle=none;html=1;exitX=0.5;exitY=1;exitDx=0;exitDy=0;entryX=0.4;entryY=-0.089;entryDx=0;entryDy=0;entryPerimeter=0;strokeColor=#1808FF;fontFamily=Comic Sans MS;fontSize=12;" edge="1" parent="1" source="16" target="33">
                    <mxGeometry relative="1" as="geometry"/>
                </mxCell>
                <mxCell id="16" value="&lt;font style=&quot;font-size: 14px;&quot;&gt;管理员操作&lt;/font&gt;" style="ellipse;whiteSpace=wrap;html=1;shadow=1;fillColor=#00CC66;" vertex="1" parent="1">
                    <mxGeometry x="400" y="280" width="100" height="40" as="geometry"/>
                </mxCell>
                <mxCell id="18" value="&lt;font style=&quot;font-size: 12px;&quot;&gt;查看信息&lt;/font&gt;" style="rounded=0;whiteSpace=wrap;html=1;shadow=1;fontFamily=Comic Sans MS;fontSize=18;fillColor=#8C7AFF;" vertex="1" parent="1">
                    <mxGeometry x="110" y="400" width="20" height="100" as="geometry"/>
                </mxCell>
                <mxCell id="19" value="&lt;font style=&quot;font-size: 12px;&quot;&gt;放弃课程&lt;/font&gt;" style="rounded=0;whiteSpace=wrap;html=1;shadow=1;fontFamily=Comic Sans MS;fontSize=18;fillColor=#8C7AFF;" vertex="1" parent="1">
                    <mxGeometry x="160" y="400" width="20" height="100" as="geometry"/>
                </mxCell>
                <mxCell id="21" value="&lt;font style=&quot;font-size: 12px;&quot;&gt;选课&lt;/font&gt;" style="rounded=0;whiteSpace=wrap;html=1;shadow=1;fontFamily=Comic Sans MS;fontSize=18;fillColor=#8C7AFF;" vertex="1" parent="1">
                    <mxGeometry x="210" y="400" width="20" height="100" as="geometry"/>
                </mxCell>
                <mxCell id="23" value="&lt;font style=&quot;font-size: 12px;&quot;&gt;重修课程&lt;/font&gt;" style="rounded=0;whiteSpace=wrap;html=1;shadow=1;fontFamily=Comic Sans MS;fontSize=18;fillColor=#8C7AFF;" vertex="1" parent="1">
                    <mxGeometry x="260" y="400" width="20" height="100" as="geometry"/>
                </mxCell>
                <mxCell id="39" style="edgeStyle=none;html=1;exitX=0.5;exitY=1;exitDx=0;exitDy=0;entryX=0.5;entryY=0;entryDx=0;entryDy=0;strokeColor=#1808FF;fontFamily=Comic Sans MS;fontSize=14;" edge="1" parent="1" source="25" target="38">
                    <mxGeometry relative="1" as="geometry"/>
                </mxCell>
                <mxCell id="25" value="&lt;font style=&quot;font-size: 12px;&quot;&gt;学生管理&lt;/font&gt;" style="rounded=0;whiteSpace=wrap;html=1;shadow=1;fontFamily=Comic Sans MS;fontSize=18;fillColor=#8C7AFF;" vertex="1" parent="1">
                    <mxGeometry x="340" y="400" width="20" height="100" as="geometry"/>
                </mxCell>
                <mxCell id="40" style="edgeStyle=none;html=1;exitX=0.5;exitY=1;exitDx=0;exitDy=0;strokeColor=#1808FF;fontFamily=Comic Sans MS;fontSize=14;entryX=0.5;entryY=0;entryDx=0;entryDy=0;" edge="1" parent="1" source="27" target="38">
                    <mxGeometry relative="1" as="geometry">
                        <mxPoint x="450" y="540" as="targetPoint"/>
                    </mxGeometry>
                </mxCell>
                <mxCell id="27" value="&lt;font style=&quot;font-size: 12px;&quot;&gt;课程管理&lt;/font&gt;" style="rounded=0;whiteSpace=wrap;html=1;shadow=1;fontFamily=Comic Sans MS;fontSize=18;fillColor=#8C7AFF;" vertex="1" parent="1">
                    <mxGeometry x="390" y="400" width="20" height="100" as="geometry"/>
                </mxCell>
                <mxCell id="41" style="edgeStyle=none;html=1;exitX=0.5;exitY=1;exitDx=0;exitDy=0;strokeColor=#1808FF;fontFamily=Comic Sans MS;fontSize=14;entryX=0.5;entryY=0;entryDx=0;entryDy=0;" edge="1" parent="1" source="29" target="38">
                    <mxGeometry relative="1" as="geometry">
                        <mxPoint x="510" y="500" as="targetPoint"/>
                    </mxGeometry>
                </mxCell>
                <mxCell id="29" value="&lt;font style=&quot;font-size: 12px;&quot;&gt;选课管理&lt;/font&gt;" style="rounded=0;whiteSpace=wrap;html=1;shadow=1;fontFamily=Comic Sans MS;fontSize=18;fillColor=#8C7AFF;" vertex="1" parent="1">
                    <mxGeometry x="440" y="400" width="20" height="100" as="geometry"/>
                </mxCell>
                <mxCell id="42" style="edgeStyle=none;html=1;exitX=0.5;exitY=1;exitDx=0;exitDy=0;strokeColor=#1808FF;fontFamily=Comic Sans MS;fontSize=14;entryX=0.5;entryY=0;entryDx=0;entryDy=0;" edge="1" parent="1" source="32" target="38">
                    <mxGeometry relative="1" as="geometry">
                        <mxPoint x="450" y="540" as="targetPoint"/>
                    </mxGeometry>
                </mxCell>
                <mxCell id="32" value="&lt;font style=&quot;font-size: 12px;&quot;&gt;专业管理&lt;/font&gt;" style="rounded=0;whiteSpace=wrap;html=1;shadow=1;fontFamily=Comic Sans MS;fontSize=18;fillColor=#8C7AFF;" vertex="1" parent="1">
                    <mxGeometry x="490" y="400" width="20" height="100" as="geometry"/>
                </mxCell>
                <mxCell id="43" style="edgeStyle=none;html=1;exitX=0.5;exitY=1;exitDx=0;exitDy=0;strokeColor=#1808FF;fontFamily=Comic Sans MS;fontSize=14;entryX=0.5;entryY=0;entryDx=0;entryDy=0;" edge="1" parent="1" source="33" target="38">
                    <mxGeometry relative="1" as="geometry">
                        <mxPoint x="450" y="540" as="targetPoint"/>
                    </mxGeometry>
                </mxCell>
                <mxCell id="33" value="&lt;font style=&quot;font-size: 12px;&quot;&gt;学院管理&lt;/font&gt;" style="rounded=0;whiteSpace=wrap;html=1;shadow=1;fontFamily=Comic Sans MS;fontSize=18;fillColor=#8C7AFF;" vertex="1" parent="1">
                    <mxGeometry x="540" y="400" width="20" height="100" as="geometry"/>
                </mxCell>
                <mxCell id="38" value="&lt;font style=&quot;font-size: 14px;&quot;&gt;增删改查&lt;/font&gt;" style="ellipse;whiteSpace=wrap;html=1;aspect=fixed;shadow=1;fontFamily=Comic Sans MS;fontSize=12;fillColor=#990099;" vertex="1" parent="1">
                    <mxGeometry x="410" y="585" width="80" height="80" as="geometry"/>
                </mxCell>
                <mxCell id="54" style="edgeStyle=none;html=1;exitX=0.5;exitY=1;exitDx=0;exitDy=0;entryX=0.25;entryY=0;entryDx=0;entryDy=0;strokeColor=#1808FF;fontFamily=Comic Sans MS;fontSize=12;" edge="1" parent="1" source="44" target="49">
                    <mxGeometry relative="1" as="geometry"/>
                </mxCell>
                <mxCell id="55" style="edgeStyle=none;html=1;exitX=0.5;exitY=1;exitDx=0;exitDy=0;entryX=0.5;entryY=0;entryDx=0;entryDy=0;strokeColor=#1808FF;fontFamily=Comic Sans MS;fontSize=12;" edge="1" parent="1" source="44" target="50">
                    <mxGeometry relative="1" as="geometry"/>
                </mxCell>
                <mxCell id="56" style="edgeStyle=none;html=1;exitX=0.5;exitY=1;exitDx=0;exitDy=0;entryX=0.5;entryY=0;entryDx=0;entryDy=0;strokeColor=#1808FF;fontFamily=Comic Sans MS;fontSize=12;" edge="1" parent="1" source="44" target="51">
                    <mxGeometry relative="1" as="geometry"/>
                </mxCell>
                <mxCell id="57" style="edgeStyle=none;html=1;exitX=0.5;exitY=1;exitDx=0;exitDy=0;entryX=0.5;entryY=0;entryDx=0;entryDy=0;strokeColor=#1808FF;fontFamily=Comic Sans MS;fontSize=12;" edge="1" parent="1" source="44" target="52">
                    <mxGeometry relative="1" as="geometry"/>
                </mxCell>
                <mxCell id="58" style="edgeStyle=none;html=1;exitX=0.5;exitY=1;exitDx=0;exitDy=0;entryX=0.5;entryY=0;entryDx=0;entryDy=0;strokeColor=#1808FF;fontFamily=Comic Sans MS;fontSize=12;" edge="1" parent="1" source="44" target="53">
                    <mxGeometry relative="1" as="geometry"/>
                </mxCell>
                <mxCell id="44" value="&lt;font style=&quot;font-size: 14px;&quot;&gt;表&lt;/font&gt;" style="ellipse;whiteSpace=wrap;html=1;shadow=1;fillColor=#00CC66;" vertex="1" parent="1">
                    <mxGeometry x="650" y="280" width="100" height="40" as="geometry"/>
                </mxCell>
                <mxCell id="62" style="edgeStyle=none;html=1;exitX=0.5;exitY=1;exitDx=0;exitDy=0;strokeColor=#1808FF;fontFamily=Comic Sans MS;fontSize=12;" edge="1" parent="1" source="45" target="60">
                    <mxGeometry relative="1" as="geometry"/>
                </mxCell>
                <mxCell id="63" style="edgeStyle=none;html=1;exitX=0.5;exitY=1;exitDx=0;exitDy=0;entryX=0.5;entryY=0;entryDx=0;entryDy=0;strokeColor=#1808FF;fontFamily=Comic Sans MS;fontSize=12;" edge="1" parent="1" source="45" target="59">
                    <mxGeometry relative="1" as="geometry"/>
                </mxCell>
                <mxCell id="64" style="edgeStyle=none;html=1;exitX=0.5;exitY=1;exitDx=0;exitDy=0;entryX=0.5;entryY=0;entryDx=0;entryDy=0;strokeColor=#1808FF;fontFamily=Comic Sans MS;fontSize=12;" edge="1" parent="1" source="45" target="61">
                    <mxGeometry relative="1" as="geometry"/>
                </mxCell>
                <mxCell id="45" value="&lt;font style=&quot;font-size: 14px;&quot;&gt;视图&lt;/font&gt;" style="ellipse;whiteSpace=wrap;html=1;shadow=1;fillColor=#00CC66;" vertex="1" parent="1">
                    <mxGeometry x="821" y="280" width="100" height="40" as="geometry"/>
                </mxCell>
                <mxCell id="46" value="" style="endArrow=none;html=1;strokeColor=#1808FF;fontFamily=Comic Sans MS;fontSize=14;entryX=0.5;entryY=1;entryDx=0;entryDy=0;" edge="1" parent="1" target="4">
                    <mxGeometry width="50" height="50" relative="1" as="geometry">
                        <mxPoint x="1065" y="200" as="sourcePoint"/>
                        <mxPoint x="890" y="150" as="targetPoint"/>
                    </mxGeometry>
                </mxCell>
                <mxCell id="47" value="" style="endArrow=none;html=1;strokeColor=#1808FF;fontFamily=Comic Sans MS;fontSize=14;" edge="1" parent="1">
                    <mxGeometry width="50" height="50" relative="1" as="geometry">
                        <mxPoint x="700" y="200" as="sourcePoint"/>
                        <mxPoint x="1380" y="200" as="targetPoint"/>
                    </mxGeometry>
                </mxCell>
                <mxCell id="48" value="" style="endArrow=classic;html=1;strokeColor=#1808FF;fontFamily=Comic Sans MS;fontSize=14;entryX=0.5;entryY=0;entryDx=0;entryDy=0;" edge="1" parent="1" target="44">
                    <mxGeometry width="50" height="50" relative="1" as="geometry">
                        <mxPoint x="700" y="200" as="sourcePoint"/>
                        <mxPoint x="699" y="260" as="targetPoint"/>
                    </mxGeometry>
                </mxCell>
                <mxCell id="49" value="&lt;font style=&quot;font-size: 12px;&quot;&gt;学生表&lt;/font&gt;" style="rounded=0;whiteSpace=wrap;html=1;shadow=1;fontFamily=Comic Sans MS;fontSize=18;fillColor=#8C7AFF;" vertex="1" parent="1">
                    <mxGeometry x="610" y="400" width="20" height="100" as="geometry"/>
                </mxCell>
                <mxCell id="50" value="&lt;font style=&quot;font-size: 12px;&quot;&gt;课程表&lt;/font&gt;" style="rounded=0;whiteSpace=wrap;html=1;shadow=1;fontFamily=Comic Sans MS;fontSize=18;fillColor=#8C7AFF;" vertex="1" parent="1">
                    <mxGeometry x="650" y="400" width="20" height="100" as="geometry"/>
                </mxCell>
                <mxCell id="51" value="&lt;font style=&quot;font-size: 12px;&quot;&gt;选课表&lt;/font&gt;" style="rounded=0;whiteSpace=wrap;html=1;shadow=1;fontFamily=Comic Sans MS;fontSize=18;fillColor=#8C7AFF;" vertex="1" parent="1">
                    <mxGeometry x="690" y="400" width="20" height="100" as="geometry"/>
                </mxCell>
                <mxCell id="52" value="&lt;font style=&quot;font-size: 12px;&quot;&gt;专业表&lt;/font&gt;" style="rounded=0;whiteSpace=wrap;html=1;shadow=1;fontFamily=Comic Sans MS;fontSize=18;fillColor=#8C7AFF;" vertex="1" parent="1">
                    <mxGeometry x="730" y="400" width="20" height="100" as="geometry"/>
                </mxCell>
                <mxCell id="53" value="&lt;font style=&quot;font-size: 12px;&quot;&gt;学院表&lt;/font&gt;" style="rounded=0;whiteSpace=wrap;html=1;shadow=1;fontFamily=Comic Sans MS;fontSize=18;fillColor=#8C7AFF;" vertex="1" parent="1">
                    <mxGeometry x="770" y="400" width="20" height="100" as="geometry"/>
                </mxCell>
                <mxCell id="59" value="&lt;font style=&quot;font-size: 12px;&quot;&gt;学生信息&lt;/font&gt;" style="rounded=0;whiteSpace=wrap;html=1;shadow=1;fontFamily=Comic Sans MS;fontSize=18;fillColor=#8C7AFF;" vertex="1" parent="1">
                    <mxGeometry x="821" y="400" width="20" height="100" as="geometry"/>
                </mxCell>
                <mxCell id="60" value="&lt;font style=&quot;font-size: 12px;&quot;&gt;课程信息&lt;/font&gt;" style="rounded=0;whiteSpace=wrap;html=1;shadow=1;fontFamily=Comic Sans MS;fontSize=18;fillColor=#8C7AFF;" vertex="1" parent="1">
                    <mxGeometry x="861" y="400" width="20" height="100" as="geometry"/>
                </mxCell>
                <mxCell id="61" value="&lt;span style=&quot;font-size: 12px;&quot;&gt;课程信息&lt;/span&gt;" style="rounded=0;whiteSpace=wrap;html=1;shadow=1;fontFamily=Comic Sans MS;fontSize=18;fillColor=#8C7AFF;" vertex="1" parent="1">
                    <mxGeometry x="901" y="400" width="20" height="100" as="geometry"/>
                </mxCell>
                <mxCell id="66" value="" style="endArrow=classic;html=1;strokeColor=#1808FF;fontFamily=Comic Sans MS;fontSize=12;entryX=0.5;entryY=0;entryDx=0;entryDy=0;" edge="1" parent="1" target="45">
                    <mxGeometry width="50" height="50" relative="1" as="geometry">
                        <mxPoint x="870" y="200" as="sourcePoint"/>
                        <mxPoint x="830" y="230" as="targetPoint"/>
                    </mxGeometry>
                </mxCell>
                <mxCell id="69" style="edgeStyle=none;html=1;exitX=0.5;exitY=1;exitDx=0;exitDy=0;entryX=0.5;entryY=0;entryDx=0;entryDy=0;strokeColor=#1808FF;fontFamily=Comic Sans MS;fontSize=12;" edge="1" parent="1" source="67" target="68">
                    <mxGeometry relative="1" as="geometry"/>
                </mxCell>
                <mxCell id="67" value="&lt;span style=&quot;font-size: 14px;&quot;&gt;函数&lt;/span&gt;" style="ellipse;whiteSpace=wrap;html=1;shadow=1;fillColor=#00CC66;" vertex="1" parent="1">
                    <mxGeometry x="950" y="280" width="100" height="40" as="geometry"/>
                </mxCell>
                <mxCell id="68" value="&lt;span style=&quot;font-size: 12px;&quot;&gt;计算GPA&lt;/span&gt;" style="rounded=0;whiteSpace=wrap;html=1;shadow=1;fontFamily=Comic Sans MS;fontSize=18;fillColor=#8C7AFF;" vertex="1" parent="1">
                    <mxGeometry x="990" y="400" width="20" height="100" as="geometry"/>
                </mxCell>
                <mxCell id="76" style="edgeStyle=none;html=1;exitX=0.5;exitY=1;exitDx=0;exitDy=0;entryX=0.5;entryY=0;entryDx=0;entryDy=0;strokeColor=#1808FF;fontFamily=Comic Sans MS;fontSize=12;" edge="1" parent="1" source="71" target="72">
                    <mxGeometry relative="1" as="geometry"/>
                </mxCell>
                <mxCell id="77" style="edgeStyle=none;html=1;exitX=0.5;exitY=1;exitDx=0;exitDy=0;entryX=0.5;entryY=0;entryDx=0;entryDy=0;strokeColor=#1808FF;fontFamily=Comic Sans MS;fontSize=12;" edge="1" parent="1" source="71" target="73">
                    <mxGeometry relative="1" as="geometry"/>
                </mxCell>
                <mxCell id="78" style="edgeStyle=none;html=1;exitX=0.5;exitY=1;exitDx=0;exitDy=0;entryX=0.5;entryY=0;entryDx=0;entryDy=0;strokeColor=#1808FF;fontFamily=Comic Sans MS;fontSize=12;" edge="1" parent="1" source="71" target="74">
                    <mxGeometry relative="1" as="geometry"/>
                </mxCell>
                <mxCell id="79" style="edgeStyle=none;html=1;exitX=0.5;exitY=1;exitDx=0;exitDy=0;entryX=0.5;entryY=0;entryDx=0;entryDy=0;strokeColor=#1808FF;fontFamily=Comic Sans MS;fontSize=12;" edge="1" parent="1" source="71" target="75">
                    <mxGeometry relative="1" as="geometry"/>
                </mxCell>
                <mxCell id="71" value="&lt;span style=&quot;font-size: 14px;&quot;&gt;存储过程&lt;/span&gt;" style="ellipse;whiteSpace=wrap;html=1;shadow=1;fillColor=#00CC66;" vertex="1" parent="1">
                    <mxGeometry x="1090" y="280" width="100" height="40" as="geometry"/>
                </mxCell>
                <mxCell id="72" value="&lt;span style=&quot;font-size: 12px;&quot;&gt;删除学生&lt;/span&gt;" style="rounded=0;whiteSpace=wrap;html=1;shadow=1;fontFamily=Comic Sans MS;fontSize=18;fillColor=#8C7AFF;" vertex="1" parent="1">
                    <mxGeometry x="1070" y="400" width="20" height="100" as="geometry"/>
                </mxCell>
                <mxCell id="73" value="&lt;span style=&quot;font-size: 12px;&quot;&gt;删除课程&lt;/span&gt;" style="rounded=0;whiteSpace=wrap;html=1;shadow=1;fontFamily=Comic Sans MS;fontSize=18;fillColor=#8C7AFF;" vertex="1" parent="1">
                    <mxGeometry x="1110" y="400" width="20" height="100" as="geometry"/>
                </mxCell>
                <mxCell id="74" value="&lt;span style=&quot;font-size: 12px;&quot;&gt;删除专业&lt;/span&gt;" style="rounded=0;whiteSpace=wrap;html=1;shadow=1;fontFamily=Comic Sans MS;fontSize=18;fillColor=#8C7AFF;" vertex="1" parent="1">
                    <mxGeometry x="1150" y="400" width="20" height="100" as="geometry"/>
                </mxCell>
                <mxCell id="75" value="&lt;span style=&quot;font-size: 12px;&quot;&gt;删除学院&lt;/span&gt;" style="rounded=0;whiteSpace=wrap;html=1;shadow=1;fontFamily=Comic Sans MS;fontSize=18;fillColor=#8C7AFF;" vertex="1" parent="1">
                    <mxGeometry x="1190" y="400" width="20" height="100" as="geometry"/>
                </mxCell>
                <mxCell id="83" style="edgeStyle=none;html=1;exitX=0.5;exitY=1;exitDx=0;exitDy=0;entryX=0.5;entryY=0;entryDx=0;entryDy=0;strokeColor=#1808FF;fontFamily=Comic Sans MS;fontSize=12;" edge="1" parent="1" source="81" target="82">
                    <mxGeometry relative="1" as="geometry"/>
                </mxCell>
                <mxCell id="81" value="&lt;span style=&quot;font-size: 14px;&quot;&gt;触发器&lt;/span&gt;" style="ellipse;whiteSpace=wrap;html=1;shadow=1;fillColor=#00CC66;" vertex="1" parent="1">
                    <mxGeometry x="1210" y="280" width="100" height="40" as="geometry"/>
                </mxCell>
                <mxCell id="82" value="&lt;span style=&quot;font-size: 12px;&quot;&gt;修改学业状态&lt;/span&gt;" style="rounded=0;whiteSpace=wrap;html=1;shadow=1;fontFamily=Comic Sans MS;fontSize=18;fillColor=#8C7AFF;" vertex="1" parent="1">
                    <mxGeometry x="1245" y="400" width="30" height="100" as="geometry"/>
                </mxCell>
                <mxCell id="92" style="edgeStyle=none;html=1;exitX=0.5;exitY=1;exitDx=0;exitDy=0;entryX=0.5;entryY=0;entryDx=0;entryDy=0;strokeColor=#1808FF;fontFamily=Comic Sans MS;fontSize=12;" edge="1" parent="1" source="85" target="86">
                    <mxGeometry relative="1" as="geometry"/>
                </mxCell>
                <mxCell id="93" style="edgeStyle=none;html=1;exitX=0.5;exitY=1;exitDx=0;exitDy=0;entryX=0.5;entryY=0;entryDx=0;entryDy=0;strokeColor=#1808FF;fontFamily=Comic Sans MS;fontSize=12;" edge="1" parent="1" source="85" target="87">
                    <mxGeometry relative="1" as="geometry"/>
                </mxCell>
                <mxCell id="94" style="edgeStyle=none;html=1;exitX=0.5;exitY=1;exitDx=0;exitDy=0;entryX=0.5;entryY=0;entryDx=0;entryDy=0;strokeColor=#1808FF;fontFamily=Comic Sans MS;fontSize=12;" edge="1" parent="1" source="85" target="89">
                    <mxGeometry relative="1" as="geometry"/>
                </mxCell>
                <mxCell id="95" style="edgeStyle=none;html=1;exitX=0.5;exitY=1;exitDx=0;exitDy=0;entryX=0.5;entryY=0;entryDx=0;entryDy=0;strokeColor=#1808FF;fontFamily=Comic Sans MS;fontSize=12;" edge="1" parent="1" source="85" target="90">
                    <mxGeometry relative="1" as="geometry"/>
                </mxCell>
                <mxCell id="96" style="edgeStyle=none;html=1;exitX=0.5;exitY=1;exitDx=0;exitDy=0;entryX=0.5;entryY=0;entryDx=0;entryDy=0;strokeColor=#1808FF;fontFamily=Comic Sans MS;fontSize=12;" edge="1" parent="1" source="85" target="91">
                    <mxGeometry relative="1" as="geometry"/>
                </mxCell>
                <mxCell id="85" value="&lt;span style=&quot;font-size: 14px;&quot;&gt;事务&lt;/span&gt;" style="ellipse;whiteSpace=wrap;html=1;shadow=1;fillColor=#00CC66;" vertex="1" parent="1">
                    <mxGeometry x="1334" y="280" width="100" height="40" as="geometry"/>
                </mxCell>
                <mxCell id="86" value="&lt;span style=&quot;font-size: 12px;&quot;&gt;放弃课程、重修等&lt;/span&gt;" style="rounded=0;whiteSpace=wrap;html=1;shadow=1;fontFamily=Comic Sans MS;fontSize=18;fillColor=#8C7AFF;" vertex="1" parent="1">
                    <mxGeometry x="1310" y="400" width="30" height="100" as="geometry"/>
                </mxCell>
                <mxCell id="87" value="&lt;span style=&quot;font-size: 12px;&quot;&gt;修改学生ID&lt;/span&gt;" style="rounded=0;whiteSpace=wrap;html=1;shadow=1;fontFamily=Comic Sans MS;fontSize=18;fillColor=#8C7AFF;" vertex="1" parent="1">
                    <mxGeometry x="1350" y="400" width="20" height="100" as="geometry"/>
                </mxCell>
                <mxCell id="89" value="&lt;span style=&quot;font-size: 12px;&quot;&gt;修改课程ID&lt;/span&gt;" style="rounded=0;whiteSpace=wrap;html=1;shadow=1;fontFamily=Comic Sans MS;fontSize=18;fillColor=#8C7AFF;" vertex="1" parent="1">
                    <mxGeometry x="1380" y="400" width="20" height="100" as="geometry"/>
                </mxCell>
                <mxCell id="90" value="&lt;span style=&quot;font-size: 12px;&quot;&gt;修改学院ID&lt;/span&gt;" style="rounded=0;whiteSpace=wrap;html=1;shadow=1;fontFamily=Comic Sans MS;fontSize=18;fillColor=#8C7AFF;" vertex="1" parent="1">
                    <mxGeometry x="1414" y="400" width="20" height="100" as="geometry"/>
                </mxCell>
                <mxCell id="91" value="&lt;span style=&quot;font-size: 12px;&quot;&gt;修改学院ID&lt;/span&gt;" style="rounded=0;whiteSpace=wrap;html=1;shadow=1;fontFamily=Comic Sans MS;fontSize=18;fillColor=#8C7AFF;" vertex="1" parent="1">
                    <mxGeometry x="1450" y="400" width="20" height="100" as="geometry"/>
                </mxCell>
                <mxCell id="98" value="" style="endArrow=classic;html=1;strokeColor=#1808FF;fontFamily=Comic Sans MS;fontSize=12;entryX=0.46;entryY=0;entryDx=0;entryDy=0;entryPerimeter=0;" edge="1" parent="1" target="85">
                    <mxGeometry width="50" height="50" relative="1" as="geometry">
                        <mxPoint x="1380" y="200" as="sourcePoint"/>
                        <mxPoint x="1380" y="270" as="targetPoint"/>
                    </mxGeometry>
                </mxCell>
                <mxCell id="99" value="" style="endArrow=classic;html=1;strokeColor=#1808FF;fontFamily=Comic Sans MS;fontSize=12;entryX=0.5;entryY=0;entryDx=0;entryDy=0;" edge="1" parent="1" target="67">
                    <mxGeometry width="50" height="50" relative="1" as="geometry">
                        <mxPoint x="1000" y="200" as="sourcePoint"/>
                        <mxPoint x="990" y="210" as="targetPoint"/>
                    </mxGeometry>
                </mxCell>
                <mxCell id="100" value="" style="endArrow=classic;html=1;strokeColor=#1808FF;fontFamily=Comic Sans MS;fontSize=12;entryX=0.5;entryY=0;entryDx=0;entryDy=0;" edge="1" parent="1" target="71">
                    <mxGeometry width="50" height="50" relative="1" as="geometry">
                        <mxPoint x="1140" y="200" as="sourcePoint"/>
                        <mxPoint x="1140" y="230" as="targetPoint"/>
                    </mxGeometry>
                </mxCell>
                <mxCell id="101" value="" style="endArrow=classic;html=1;strokeColor=#1808FF;fontFamily=Comic Sans MS;fontSize=12;entryX=0.5;entryY=0;entryDx=0;entryDy=0;" edge="1" parent="1" target="81">
                    <mxGeometry width="50" height="50" relative="1" as="geometry">
                        <mxPoint x="1260" y="200" as="sourcePoint"/>
                        <mxPoint x="1270" y="220" as="targetPoint"/>
                    </mxGeometry>
                </mxCell>
            </root>
        </mxGraphModel>
    </diagram>
</mxfile>